<?xml version="1.0" encoding="utf-8"?>
<!-- Generator: Adobe Illustrator 16.0.0, SVG Export Plug-In . SVG Version: 6.00 Build 0)  -->
<!DOCTYPE svg PUBLIC "-//W3C//DTD SVG 1.1//EN" "http://www.w3.org/Graphics/SVG/1.1/DTD/svg11.dtd">
<svg version="1.1" id="Capa_1" xmlns="http://www.w3.org/2000/svg" xmlns:xlink="http://www.w3.org/1999/xlink" x="0px" y="0px"
	 width="612px" height="792px" viewBox="0 0 612 792" enable-background="new 0 0 612 792" xml:space="preserve">
<g>
	<path fill="#FFFFFF" d="M489.269,355.4c-0.373-0.424-0.767-0.881-1.184-1.361c-0.405-0.484-0.799-1-1.223-1.537
		c-0.417-0.537-0.874-1.088-1.307-1.68c-0.428-0.6-0.865-1.219-1.322-1.854c-0.223-0.318-0.452-0.641-0.683-0.965
		c-0.219-0.338-0.44-0.674-0.659-1.02c-0.44-0.688-0.9-1.383-1.342-2.105c-0.851-1.469-1.763-2.965-2.546-4.553
		c-0.845-1.557-1.56-3.213-2.314-4.838c-0.672-1.666-1.378-3.307-1.922-4.986c-0.619-1.639-1.072-3.314-1.553-4.907
		c-0.222-0.804-0.408-1.604-0.604-2.378c-0.092-0.395-0.187-0.775-0.285-1.152c-0.076-0.385-0.15-0.762-0.23-1.136
		c-0.144-0.751-0.29-1.473-0.425-2.176c-0.132-0.706-0.215-1.39-0.317-2.044c-0.096-0.656-0.199-1.279-0.274-1.879
		c-0.061-0.6-0.119-1.171-0.167-1.703c-0.055-0.537-0.111-1.033-0.155-1.493c-0.039-0.462-0.052-0.886-0.074-1.274
		c-0.048-0.901-0.08-1.569-0.104-1.965l-1.501-11.941c-1.338,3.177-19.689,48.168,7.854,61.18c0,0,6.512,2.545,12.933-0.057
		c0.202-0.078,0.405-0.162,0.615-0.25c0.123-0.047,0.246-0.104,0.365-0.158c-0.163-0.172-0.342-0.357-0.528-0.564
		C489.995,356.23,489.646,355.83,489.269,355.4"/>
	<path fill="#FFFFFF" d="M496.824,325.534c-1.905-1.953-4.142-3.95-6.758-5.968c-21.556-16.601-20.909-23.299-20.909-23.299
		l-0.08,0.174c0.39,3.05,1.025,8.073,1.497,11.856c-0.012-0.226-0.02-0.35-0.02-0.35s0.15,0.866,0.417,2.378
		c0.071,0.375,0.135,0.795,0.231,1.243c0.095,0.454,0.209,0.938,0.324,1.458s0.242,1.072,0.369,1.652
		c0.143,0.579,0.326,1.178,0.496,1.811c0.175,0.627,0.342,1.286,0.549,1.953c0.223,0.671,0.444,1.362,0.679,2.076
		c0.111,0.346,0.229,0.711,0.354,1.068c0.131,0.357,0.27,0.719,0.413,1.084c0.282,0.73,0.556,1.477,0.857,2.231
		c0.655,1.485,1.282,3.034,2.065,4.535c0.718,1.536,1.588,3.024,2.405,4.526c0.91,1.457,1.768,2.934,2.748,4.303
		c0.913,1.406,1.945,2.701,2.895,3.975c0.5,0.623,1.009,1.221,1.493,1.807c0.246,0.299,0.488,0.584,0.727,0.875
		c0.25,0.273,0.496,0.551,0.742,0.816c0.488,0.537,0.97,1.057,1.43,1.561c0.465,0.5,0.949,0.957,1.395,1.402
		c0.448,0.441,0.868,0.885,1.286,1.27c0.416,0.377,0.813,0.738,1.188,1.072c0.368,0.334,0.718,0.646,1.039,0.938
		c0.334,0.295,0.675,0.564,0.969,0.805c0.346,0.295,0.645,0.541,0.901,0.752c0.906-0.838,1.72-1.756,2.434-2.732
		C493.803,343.529,492.763,333.771,496.824,325.534"/>
	<path fill="#FFFFFF" d="M540.256,280.932l-1.938,15.43c-0.031,0.521-0.079,1.383-0.135,2.543c-0.035,0.5-0.051,1.049-0.099,1.646
		c-0.061,0.601-0.127,1.239-0.195,1.931c-0.07,0.69-0.146,1.429-0.223,2.2c-0.091,0.773-0.229,1.579-0.35,2.425
		c-0.135,0.842-0.245,1.736-0.408,2.642c-0.183,0.909-0.365,1.846-0.557,2.803c-0.099,0.488-0.198,0.98-0.297,1.477
		c-0.119,0.488-0.243,0.984-0.37,1.486c-0.253,1.004-0.492,2.037-0.77,3.076c-0.627,2.058-1.212,4.218-2.006,6.342
		c-0.709,2.164-1.627,4.285-2.489,6.439c-0.973,2.102-1.895,4.236-2.985,6.246c-1.021,2.061-2.196,3.986-3.288,5.885
		c-0.576,0.934-1.167,1.83-1.735,2.719c-0.286,0.445-0.575,0.887-0.854,1.318c-0.298,0.422-0.596,0.838-0.885,1.252
		c-0.589,0.816-1.151,1.619-1.704,2.393c-0.564,0.76-1.151,1.465-1.691,2.168c-0.549,0.691-1.056,1.363-1.577,1.986
		c-0.539,0.619-1.052,1.207-1.531,1.764c-0.484,0.551-0.935,1.066-1.354,1.551c-0.237,0.268-0.469,0.5-0.679,0.73
		c0.15,0.064,0.31,0.139,0.468,0.203c0.271,0.107,0.54,0.211,0.794,0.322c8.296,3.354,16.717,0.074,16.717,0.074
		C565.691,343.172,541.983,285.046,540.256,280.932"/>
	<path fill="#FFFFFF" d="M513.554,346.635c0.591-0.652,1.206-1.33,1.837-2.021c0.321-0.346,0.641-0.699,0.966-1.061
		c0.31-0.367,0.619-0.742,0.933-1.123c0.631-0.758,1.29-1.533,1.934-2.33c1.228-1.652,2.554-3.324,3.745-5.139
		c1.262-1.77,2.373-3.678,3.538-5.562c1.063-1.938,2.19-3.86,3.116-5.84c1.009-1.946,1.822-3.944,2.668-5.861
		c0.389-0.973,0.742-1.942,1.104-2.883c0.183-0.473,0.361-0.941,0.536-1.398c0.154-0.473,0.305-0.933,0.46-1.389
		c0.298-0.918,0.591-1.811,0.874-2.674c0.27-0.864,0.48-1.715,0.711-2.528c0.218-0.813,0.448-1.593,0.635-2.339
		c0.167-0.754,0.33-1.465,0.484-2.132c0.147-0.671,0.286-1.304,0.417-1.883c0.122-0.583,0.202-1.119,0.294-1.607
		c0.342-1.958,0.539-3.069,0.539-3.069s-0.008,0.158-0.023,0.449c0.612-4.889,1.434-11.373,1.931-15.316
		c-0.064-0.146-0.101-0.229-0.101-0.229s0.834,8.652-27.012,30.102c-3.871,2.986-7.099,5.936-9.779,8.807
		c-1.712,1.831-3.065,3.832-4.103,5.928c-4.062,8.236-3.021,17.995,2.138,25.272c0.984,1.398,2.115,2.699,3.397,3.883
		c0.33-0.273,0.716-0.594,1.168-0.965c0.373-0.316,0.817-0.666,1.251-1.043c0.417-0.379,0.862-0.783,1.343-1.217
		c0.479-0.432,0.992-0.893,1.531-1.381c0.536-0.5,1.081-1.072,1.664-1.639C512.322,347.861,512.945,347.277,513.554,346.635"/>
</g>
<g>
	<path fill="#FFFFFF" d="M293.76,386.196l-1.776,8.91c-0.743,3.697-1.114,6.322-1.114,7.869c0,3.074,2.98,4.611,8.943,4.611
		c5.917,0,11.128-1.051,15.636-3.154c-1.041,3.467-2.762,5.604-5.166,6.412c-1.457,0.486-3.987,0.988-7.592,1.51
		c-3.605,0.52-6.379,0.779-8.32,0.779c-7.558,0-11.337-2.508-11.337-7.523c0-1.34,0.37-3.918,1.109-7.73l2.323-11.683h-0.521
		c-2.334,0-4.599,0.509-6.795,1.525c1.271-2.496,2.317-4.091,3.138-4.784s2.12-1.04,3.9-1.04h1.144l3.398-17.092h-1.006
		c-4.276,0-8.239,1.364-11.891,4.092c1.155-3.698,2.738-6.079,4.749-7.143c1.571-0.809,6.413-1.213,14.526-1.213h10.33
		c6.518,0,11.811-0.646,15.879-1.941c-1.824,2.89-3.445,4.646-4.865,5.27c-1.418,0.624-4.494,0.936-9.225,0.936h-11.183
		l-3.449,17.092h7.17c5.011,0,9.005-0.636,11.984-1.906c-1.57,2.935-2.969,4.703-4.191,5.304c-1.225,0.602-4.1,0.901-8.626,0.901
		H293.76z"/>
	<path fill="#FFFFFF" d="M335.447,384.254h-0.693c-3.445,0-6.449,0.855-9.014,2.565c0.555-2.958,1.369-4.836,2.443-5.634
		c1.074-0.797,3.334-1.195,6.777-1.195h1.318l1.143-5.721c1.549-7.766,4.021-13.358,7.42-16.779
		c4.205-4.252,8.863-6.379,13.971-6.379c1.988,0,3.697,0.463,5.131,1.387c1.434,0.925,2.15,2.045,2.15,3.363
		c0,1.34-1.492,2.877-4.473,4.61c-0.832-3.536-2.729-5.304-5.686-5.304c-5.248,0-9.002,5.708-11.268,17.125l-1.525,7.697h12.1
		c5.523,0,9.58-0.301,12.168-0.902c-1.109,2.45-2.375,3.924-3.797,4.421c-1.42,0.497-5.078,0.745-10.971,0.745h-10.367L336.383,414
		c-0.578,2.865-0.867,5.373-0.867,7.521c0,1.365,0.301,2.602,0.902,3.711c-2.312,0.762-4.092,1.143-5.34,1.143
		c-1.918,0-2.877-1.074-2.877-3.223c0-1.688,0.381-4.461,1.145-8.32L335.447,384.254z"/>
	<path fill="#FFFFFF" d="M366.781,384.254h-0.693c-3.443,0-6.449,0.855-9.014,2.565c0.555-2.958,1.369-4.836,2.443-5.634
		c1.076-0.797,3.334-1.195,6.777-1.195h1.318l1.145-5.721c1.547-7.766,4.021-13.358,7.418-16.779
		c4.207-4.252,8.863-6.379,13.971-6.379c1.988,0,3.699,0.463,5.131,1.387c1.434,0.925,2.15,2.045,2.15,3.363
		c0,1.34-1.49,2.877-4.473,4.61c-0.832-3.536-2.727-5.304-5.686-5.304c-5.246,0-9.002,5.708-11.268,17.125l-1.525,7.697h12.1
		c5.523,0,9.58-0.301,12.168-0.902c-1.109,2.45-2.373,3.924-3.795,4.421s-5.08,0.745-10.973,0.745h-10.365L367.717,414
		c-0.578,2.865-0.867,5.373-0.867,7.521c0,1.365,0.301,2.602,0.902,3.711c-2.311,0.762-4.092,1.143-5.34,1.143
		c-1.918,0-2.877-1.074-2.877-3.223c0-1.688,0.381-4.461,1.145-8.32L366.781,384.254z"/>
	<path fill="#FFFFFF" d="M399.986,397.416c0,6.758,2.867,10.135,8.598,10.135c4.971,0,10.447-2.363,16.434-7.09
		c5.986-4.728,11.383-10.954,16.189-18.679l2.947,1.625c-4.529,8.454-10.418,15.453-17.664,20.996
		c-7.244,5.543-14.115,8.314-20.609,8.314c-4.16,0-7.447-1.34-9.863-4.021s-3.623-6.344-3.623-10.99
		c0-6.702,2.189-12.433,6.57-17.195c4.379-4.761,9.654-7.142,15.826-7.142c2.98,0,5.367,0.751,7.158,2.252
		c1.791,1.502,2.688,3.512,2.688,6.029c0,4.136-2.49,7.797-7.471,10.985C412.184,395.823,406.459,397.416,399.986,397.416z
		 M400.264,394.088c4.832-0.254,8.975-1.637,12.43-4.149c3.455-2.512,5.182-5.416,5.182-8.713c0-2.95-1.316-4.425-3.951-4.425
		c-3.143,0-6.045,1.683-8.701,5.048C402.564,385.214,400.912,389.294,400.264,394.088z"/>
	<path fill="#FFFFFF" d="M490.361,383.526c-5.594,9.384-11.521,16.775-17.785,22.171s-12.076,8.094-17.438,8.094
		c-4.461,0-8.078-1.525-10.852-4.576s-4.16-7.014-4.16-11.891c0-6.425,2.393-12.024,7.176-16.796
		c4.785-4.772,10.4-7.159,16.85-7.159c2.611,0,4.754,0.503,6.43,1.508c1.676,1.006,2.514,2.283,2.514,3.831
		c0,2.543-2.16,4.449-6.482,5.721c0.23-0.555,0.348-1.087,0.348-1.596c0-3.744-1.988-5.615-5.963-5.615
		c-3.445,0-6.617,1.924-9.518,5.771c-2.9,3.849-4.35,8.061-4.35,12.637c0,3.722,0.963,6.755,2.895,9.101
		c1.93,2.346,4.441,3.518,7.539,3.518c8.506,0,18.467-8.816,29.885-26.451L490.361,383.526z"/>
	<path fill="#FFFFFF" d="M512.717,398.121c0.625,1.133,0.936,2.127,0.936,2.982c0,2.266-1.912,4.766-5.736,7.506
		c-3.826,2.738-7.311,4.107-10.453,4.107c-2.773,0-5.033-1.236-6.777-3.709c-1.746-2.473-2.617-5.662-2.617-9.568
		c0-4.345,1.145-10.528,3.432-18.548l1.596-5.824h-5.859c-2.451,0-4.402,0.348-5.859,1.041c1.34-2.435,2.449-3.962,3.328-4.583
		c0.879-0.619,2.369-0.93,4.473-0.93h5.234l0.693-2.399c1.062-3.569,2.334-6.021,3.814-7.354c1.479-1.333,3.697-2,6.656-2
		c0.346,0,0.9,0.023,1.664,0.07c-1.803,2.318-3.676,6.212-5.617,11.683h18.305c3.213,0,5.662-0.417,7.35-1.252
		c-0.578,2.368-1.346,3.914-2.305,4.638c-0.961,0.725-2.746,1.086-5.357,1.086h-19.482c-0.232,0.764-0.404,1.33-0.52,1.699
		c-2.797,9.522-4.195,16.71-4.195,21.564c0,5.361,1.93,8.043,5.789,8.043c1.988,0,4.154-0.844,6.5-2.531
		S511.723,400.248,512.717,398.121z"/>
</g>
<g>
	<path fill="#FFFFFF" d="M79.928,412.814c0-5.062,8.133-14.523,8.133-19.006c0-2.241-4.398-2.905-11.287-2.905
		c-1.66,0-3.402,0.083-5.146,0.166l-3.153,4.15c-5.976,8.05-10.623,18.259-11.121,19.337c-0.83,1.826-4.896,2.075-6.391,2.075
		c-0.996,0-3.817-0.083-3.817-1.328c0-1.161,7.635-11.784,17.511-23.736c-3.237,0.332-7.054,0.747-7.22,0.747
		c-0.664,0-0.747-0.747-0.747-0.747c0-2.075,3.735-4.979,5.727-5.727c0.664-0.332,3.734-0.415,7.469-0.498l1.162-1.328
		c12.781-14.772,27.138-29.13,35.022-29.13c0,0,0.83-0.083,1.909-0.083c2.241,0,5.726,0.415,5.726,2.739
		c0,1.079-3.817,7.635-9.959,20.914c-5.478,12.034-14.108,32.367-15.603,38.84c0,0,0,0.664-1.328,0.664
		C83.912,417.959,79.928,414.64,79.928,412.814z M98.353,368.081c0-0.747-0.581-1.162-1.411-1.162
		c-3.486,0-12.449,8.797-20.665,18.425c4.813,0.083,9.046,0.166,9.046,0.166C92.709,385.509,98.353,370.737,98.353,368.081z"/>
	<path fill="#FFFFFF" d="M138.691,413.727c-2.656,0-3.402-4.315-3.402-4.315c-0.166-0.663-0.581-0.913-1.079-0.913
		c-0.581,0-1.411,0.25-1.826,0.582c-6.723,5.311-11.619,6.141-14.524,6.141c-7.884,0-8.631-7.469-8.631-11.535
		c0-13.279,18.922-48.385,41.995-48.385c0.581,0,3.9,0.166,5.809,1.245c0,0,0.332,0.166,0.747,0.166c0.249,0,0.581-0.083,0.83-0.249
		c0,0,2.075-1.411,5.229-1.411c0.83,0,3.32,0.083,3.32,1.577c0,2.407-6.806,12.781-11.868,16.101
		c-0.83,0.498-1.66,0.996-2.905,0.996c-1.245,0-1.826,0-1.826-1.162c0-0.664,2.158-3.9,2.158-7.386c0-2.075-0.415-4.398-4.481-4.398
		c-10.374,0-28.467,27.968-28.467,41.082c0,1.162,0.083,5.395,4.482,5.395c7.635,0,18.092-13.611,18.092-17.346
		c0-1.909-1.411-2.988-8.465-2.988c-0.664,0-0.996-0.083-0.996-0.747c0-0.83,0.996-2.324,2.158-3.403
		c0.913-0.83,1.826-1.079,2.573-1.162c0,0,5.975-0.415,11.204-0.415c4.233,0,7.967,0.249,7.967,1.162
		c0,2.158-6.556,12.449-12.117,21.496C141.181,409.577,139.688,413.727,138.691,413.727z"/>
	<path fill="#FFFFFF" d="M156.29,415.387c-2.324,0-2.573-0.83-2.573-1.162v-0.166c0-2.24,22.408-37.512,27.47-49.048
		c1.743-3.9,1.909-6.059,1.909-7.386v-0.83c0-0.913,1.328-2.241,12.615-2.241c11.702,0,22.242,0.581,22.242,11.536
		c0,5.395-4.731,10.457-9.544,13.03c-6.141,3.237-11.951,2.324-11.951,4.896c0,1.66,4.896,3.154,4.896,6.805
		c0,3.818-5.478,12.283-5.478,19.918c0,0.83,0.166,1.743,0.166,2.489c0,1.162-1.577,1.328-3.984,1.328
		c-5.561,0-6.971-1.244-6.971-2.738c0-5.062,7.386-17.844,7.386-22.325c0-3.818-3.402-4.398-5.395-4.398
		c-0.747,0-1.328,0.083-1.328,0.083c-0.913,0-0.996-0.415-0.996-0.747c0-1.909,1.66-4.813,4.233-4.813
		c10.291,0,19.503-7.47,19.503-13.943c0-5.146-3.568-6.391-8.382-6.391c-2.49,0-4.73,1.245-5.644,2.324
		c-6.888,8.631-26.226,44.152-27.885,49.713C165.419,414.391,159.858,415.387,156.29,415.387z"/>
	<path fill="#FFFFFF" d="M231.401,414.806c-9.295,0-14.938-5.395-14.938-14.523c0-15.104,16.432-46.227,40.5-46.227
		c9.295,0,14.938,5.312,14.938,14.441C271.901,383.601,255.469,414.806,231.401,414.806z M255.469,358.62
		c-11.453,0-28.798,25.811-28.798,41.994c0,2.157,0,9.129,6.639,9.129c11.37,0,28.798-25.811,28.798-41.994
		C262.108,365.591,262.108,358.62,255.469,358.62z"/>
</g>
</svg>
